<svg width="76" height="13" viewBox="0 0 76 13" fill="none" xmlns="http://www.w3.org/2000/svg">
<path d="M6.58496 10.3126L10.6544 12.8317L9.57448 8.08398L13.1698 4.8896L8.4353 4.47764L6.58496 9.15527e-05L4.73461 4.47764L9.15527e-05 4.8896L3.59543 8.08398L2.51551 12.8317L6.58496 10.3126Z" fill="#FFA601"/>
<path d="M22.3888 10.3125L26.4582 12.8316L25.3783 8.08391L28.9736 4.88952L24.2391 4.47756L22.3888 1.52588e-05L20.5384 4.47756L15.8039 4.88952L19.3992 8.08391L18.3193 12.8316L22.3888 10.3125Z" fill="#FFA601"/>
<path d="M38.1923 10.3125L42.2617 12.8316L41.1818 8.08391L44.7772 4.88952L40.0426 4.47756L38.1923 1.52588e-05L36.3419 4.47756L31.6074 4.88952L35.2028 8.08391L34.1228 12.8316L38.1923 10.3125Z" fill="#FFA601"/>
<path d="M53.9961 10.3125L58.0655 12.8316L56.9856 8.08391L60.581 4.88952L55.8464 4.47756L53.9961 1.52588e-05L52.1457 4.47756L47.4112 4.88952L51.0066 8.08391L49.9266 12.8316L53.9961 10.3125Z" fill="#FFA601"/>
<path d="M69.7996 10.3125L73.869 12.8316L72.7891 8.08391L76.3844 4.88952L71.6499 4.47756L69.7996 1.52588e-05L67.9492 4.47756L63.2147 4.88952L66.8101 8.08391L65.7301 12.8316L69.7996 10.3125Z" fill="#FFA601"/>
</svg>
