<svg width="11" height="19" viewBox="0 0 11 19" fill="none" xmlns="http://www.w3.org/2000/svg">
<path d="M0.39819 17.6917C0.143229 17.4366 0 17.0908 0 16.7301C0 16.3695 0.143229 16.0237 0.39819 15.7686L7.13019 9.03661L0.39819 2.30461C0.150455 2.04811 0.0133739 1.70457 0.0164725 1.34799C0.0195712 0.9914 0.162601 0.650295 0.414756 0.39814C0.666911 0.145985 1.00802 0.00295635 1.3646 -0.000143111C1.72119 -0.00324066 2.06473 0.133839 2.32123 0.381575L10.0147 8.07509C10.2697 8.33013 10.4129 8.67599 10.4129 9.03661C10.4129 9.39724 10.2697 9.7431 10.0147 9.99813L2.32123 17.6917C2.06619 17.9466 1.72033 18.0898 1.35971 18.0898C0.999086 18.0898 0.653227 17.9466 0.39819 17.6917Z" fill="white"/>
</svg>
