<svg width="325" height="331" viewBox="0 0 325 331" fill="none" xmlns="http://www.w3.org/2000/svg">
<g clip-path="url(#clip0_13_373)">
<path d="M35.2092 210.01C35.8092 211.74 36.0392 213.38 35.9192 214.93C35.7992 216.48 35.3393 217.84 34.5492 218.99C33.7592 220.15 32.6792 221 31.2992 221.56L30.1593 218.26C30.9993 217.89 31.6393 217.34 32.0793 216.6C32.5193 215.86 32.7693 215.01 32.8093 214.04C32.8593 213.08 32.6992 212.08 32.3492 211.05C31.9492 209.9 31.3993 208.95 30.6893 208.2C29.9793 207.45 29.1793 206.94 28.2893 206.69C27.3993 206.43 26.4793 206.47 25.5393 206.79C24.5493 207.13 23.7693 207.68 23.1793 208.43C22.5893 209.18 22.2493 210.1 22.1493 211.19C22.0493 212.28 22.2293 213.51 22.7093 214.87L23.4493 217.02L20.5693 218.02L19.8293 215.87C19.4593 214.81 18.9493 213.94 18.2793 213.26C17.6193 212.59 16.8593 212.14 15.9993 211.92C15.1393 211.7 14.2393 211.76 13.2993 212.09C12.3893 212.4 11.6693 212.88 11.1393 213.51C10.6093 214.14 10.2793 214.89 10.1593 215.75C10.0393 216.61 10.1493 217.53 10.4893 218.52C10.8093 219.44 11.2793 220.26 11.8993 220.96C12.5193 221.66 13.2293 222.16 14.0393 222.45C14.8493 222.75 15.7093 222.76 16.6093 222.5L17.6993 225.64C16.2793 226.07 14.8993 226.08 13.5593 225.65C12.2293 225.22 11.0393 224.47 9.99925 223.39C8.95925 222.31 8.16925 221 7.63925 219.45C7.06925 217.79 6.90925 216.25 7.15925 214.84C7.40925 213.43 7.97925 212.21 8.84925 211.19C9.71925 210.18 10.7893 209.45 12.0493 209.01C13.5593 208.49 14.9793 208.44 16.3193 208.86C17.6593 209.28 18.7693 210.1 19.6393 211.31L19.8493 211.24C19.5393 209.45 19.7993 207.88 20.6293 206.53C21.4593 205.18 22.7193 204.21 24.4193 203.62C25.8792 203.12 27.3193 203.06 28.7493 203.45C30.1793 203.84 31.4592 204.6 32.5992 205.73C33.7292 206.86 34.5993 208.3 35.1993 210.03L35.2092 210.01Z" fill="#F4E2FF"/>
<path d="M28.9696 183.83C29.2496 185.9 28.9296 187.74 27.9996 189.35C27.0696 190.96 25.5796 192.3 23.5296 193.36C21.4796 194.42 18.9296 195.16 15.8696 195.58C12.8296 196 10.1896 195.97 7.91956 195.49C5.65956 195.01 3.85956 194.12 2.51956 192.82C1.17956 191.52 0.369557 189.84 0.0895575 187.79C-0.190443 185.74 0.139558 183.91 1.07956 182.29C2.01956 180.68 3.50956 179.33 5.55956 178.27C7.60956 177.2 10.1496 176.46 13.1896 176.04C16.2496 175.62 18.8996 175.65 21.1596 176.12C23.4196 176.59 25.2096 177.48 26.5396 178.78C27.8696 180.08 28.6696 181.76 28.9596 183.83H28.9696ZM25.9496 184.25C25.6696 182.2 24.4596 180.74 22.3296 179.88C20.1996 179.02 17.2996 178.84 13.6396 179.34C11.2096 179.67 9.16956 180.22 7.52956 180.97C5.88956 181.72 4.68956 182.64 3.91956 183.73C3.15956 184.82 2.86956 186.04 3.04956 187.39C3.32956 189.42 4.54956 190.87 6.69956 191.74C8.85956 192.61 11.7596 192.8 15.4096 192.3C17.8396 191.97 19.8696 191.43 21.5096 190.68C23.1396 189.93 24.3296 189.02 25.0896 187.93C25.8396 186.84 26.1296 185.62 25.9396 184.26L25.9496 184.25Z" fill="#F4E2FF"/>
<path d="M11.9495 153.11L14.9895 153.23L14.5095 165.63L11.4695 165.51L11.9495 153.11Z" fill="#F4E2FF"/>
<path d="M30.3696 136.31L28.4096 144.84L0.769562 138.48L2.81956 129.57C3.43956 126.89 4.51956 124.72 6.05956 123.07C7.59956 121.42 9.51956 120.32 11.8096 119.77C14.0996 119.23 16.6796 119.28 19.5396 119.94C22.4196 120.6 24.7796 121.68 26.6196 123.19C28.4596 124.7 29.7096 126.55 30.3696 128.77C31.0296 130.99 31.0396 133.5 30.3896 136.31H30.3696ZM26.2096 140.81L27.3496 135.84C27.8796 133.55 27.8696 131.56 27.3296 129.85C26.7896 128.14 25.7996 126.74 24.3396 125.62C22.8796 124.51 21.0296 123.69 18.7796 123.18C16.5496 122.67 14.5396 122.59 12.7596 122.95C10.9796 123.31 9.47956 124.11 8.27956 125.36C7.07956 126.61 6.22956 128.31 5.72956 130.47L4.49956 135.81L26.1996 140.8L26.2096 140.81Z" fill="#F4E2FF"/>
<path d="M36.32 115.62L34.81 118.89L13.46 97.51L14.95 94.29L45.06 96.78L43.54 100.05L18.32 97.69L18.23 97.89L36.32 115.63V115.62ZM26.83 109.75L32.94 96.58L35.7 97.86L29.59 111.03L26.83 109.75Z" fill="#F4E2FF"/>
<path d="M22.9893 78.6397L25.2893 75.4497L40.6293 76.7997L40.8193 76.5297L34.6693 62.4097L36.9693 59.2197L44.5193 77.2797L54.0093 84.1097L52.0093 86.8997L42.5193 80.0697L22.9993 78.6497L22.9893 78.6397Z" fill="#F4E2FF"/>
<path d="M58.8799 37.1896L62.2599 34.8596L83.5699 48.7596L83.8399 48.5696L78.3999 23.7196L81.7699 21.3896L97.8799 44.7296L95.2399 46.5496L82.9999 28.8196L82.7699 28.9796L87.7199 51.7496L85.1699 53.5096L65.6299 40.8097L65.3999 40.9697L77.6399 58.7096L74.9999 60.5296L58.8899 37.1896H58.8799Z" fill="#F4E2FF"/>
<path d="M123.32 19.3703C124.36 22.1803 124.75 24.7903 124.49 27.2103C124.23 29.6303 123.43 31.7203 122.07 33.4803C120.71 35.2403 118.9 36.5403 116.63 37.3803C114.36 38.2203 112.14 38.4103 109.96 37.9603C107.78 37.5003 105.81 36.4403 104.04 34.7703C102.27 33.1003 100.87 30.8703 99.83 28.0603C98.79 25.2503 98.4 22.6403 98.66 20.2203C98.92 17.8003 99.72 15.7103 101.08 13.9503C102.44 12.1903 104.25 10.8903 106.52 10.0503C108.79 9.21027 111.01 9.02027 113.19 9.47027C115.37 9.92027 117.34 10.9903 119.11 12.6603C120.88 14.3303 122.28 16.5703 123.32 19.3703ZM120.2 20.5303C119.35 18.2303 118.24 16.4203 116.89 15.1203C115.54 13.8203 114.06 13.0003 112.45 12.6703C110.85 12.3403 109.24 12.4703 107.63 13.0703C106.02 13.6703 104.71 14.6103 103.71 15.9103C102.71 17.2103 102.12 18.7903 101.94 20.6603C101.76 22.5303 102.1 24.6103 102.95 26.9203C103.8 29.2203 104.91 31.0303 106.26 32.3303C107.61 33.6303 109.09 34.4503 110.7 34.7803C112.3 35.1103 113.91 34.9803 115.52 34.3803C117.13 33.7803 118.44 32.8403 119.44 31.5403C120.44 30.2403 121.03 28.6603 121.21 26.7903C121.39 24.9203 121.05 22.8403 120.2 20.5303Z" fill="#F4E2FF"/>
<path d="M154.79 0L158.31 28.14L155.01 28.55L136.91 8.37L136.64 8.4L139.4 30.5L135.99 30.93L132.47 2.78L135.77 2.37L153.93 22.6L154.21 22.57L151.44 0.42L154.79 0Z" fill="#F4E2FF"/>
<path d="M167.61 28.27L170.01 0L187.07 1.44L186.81 4.48L173.18 3.33L172.37 12.88L185.12 13.96L184.86 17L172.11 15.92L171.3 25.53L185.16 26.7L184.9 29.74L167.62 28.28L167.61 28.27Z" fill="#F4E2FF"/>
<path d="M198.9 3.34008L202.68 4.44008L206.53 19.3501L206.85 19.4401L218.11 8.93008L221.89 10.0301L207.39 23.1701L204.12 34.3901L200.82 33.4301L204.09 22.2101L198.91 3.33008L198.9 3.34008Z" fill="#F4E2FF"/>
<path d="M235.26 30.2004L233.95 32.9504L222.75 27.6104L224.06 24.8604L235.26 30.2004Z" fill="#F4E2FF"/>
<path d="M236.41 48.7497L252.97 25.7197L261.02 31.5097C262.62 32.6597 263.75 33.8897 264.4 35.1897C265.04 36.4897 265.29 37.7897 265.13 39.0797C264.97 40.3697 264.49 41.5797 263.68 42.6997C262.97 43.6897 262.21 44.3797 261.39 44.7797C260.58 45.1697 259.75 45.3597 258.92 45.3197C258.09 45.2797 257.27 45.1197 256.48 44.8297L256.32 45.0597C256.99 45.6097 257.52 46.3697 257.91 47.3297C258.3 48.2897 258.43 49.3597 258.31 50.5497C258.19 51.7297 257.69 52.9297 256.81 54.1497C255.98 55.2997 254.97 56.1497 253.78 56.6997C252.59 57.2397 251.24 57.3797 249.72 57.1097C248.2 56.8397 246.53 56.0497 244.72 54.7397L236.4 48.7597L236.41 48.7497ZM240.98 48.2797L246.51 52.2597C248.33 53.5697 249.88 54.1497 251.16 53.9897C252.44 53.8297 253.44 53.2497 254.17 52.2397C254.73 51.4597 255.05 50.5997 255.13 49.6497C255.21 48.6997 255.03 47.7597 254.58 46.8297C254.13 45.8997 253.41 45.0797 252.4 44.3497L246.73 40.2697L240.97 48.2797H240.98ZM248.48 37.8497L253.65 41.5697C254.49 42.1697 255.37 42.5497 256.28 42.7097C257.2 42.8697 258.07 42.7897 258.9 42.4797C259.73 42.1697 260.44 41.6097 261.02 40.7997C261.75 39.7897 262.01 38.6797 261.82 37.4597C261.62 36.2497 260.76 35.0897 259.23 33.9897L253.97 30.2097L248.47 37.8597L248.48 37.8497Z" fill="#F4E2FF"/>
<path d="M259.25 66.5702L256.82 63.9202L284.76 52.4102L287.16 55.0202L273.31 81.8702L270.88 79.2202L282.74 56.8302L282.59 56.6702L259.27 66.5702H259.25ZM268.31 60.0502L278.13 70.7402L275.89 72.8002L266.07 62.1102L268.31 60.0502Z" fill="#F4E2FF"/>
<path d="M304.89 96.1497L303.14 93.1897C303.89 92.5097 304.45 91.7697 304.84 90.9497C305.23 90.1397 305.46 89.2897 305.54 88.4097C305.62 87.5297 305.54 86.6597 305.33 85.7797C305.11 84.8997 304.76 84.0597 304.28 83.2497C303.41 81.7697 302.24 80.6497 300.79 79.8997C299.34 79.1497 297.67 78.8497 295.8 78.9997C293.93 79.1597 291.94 79.8597 289.82 81.1097C287.71 82.3597 286.13 83.7697 285.09 85.3297C284.05 86.8897 283.51 88.4897 283.47 90.1297C283.43 91.7697 283.85 93.3297 284.72 94.7997C285.2 95.6097 285.77 96.3197 286.43 96.9397C287.09 97.5597 287.83 98.0397 288.63 98.3997C289.43 98.7597 290.29 98.9597 291.19 99.0097C292.09 99.0597 293.02 98.9197 293.96 98.5997L295.71 101.56C294.33 102.07 292.97 102.33 291.64 102.32C290.31 102.32 289.04 102.08 287.84 101.61C286.63 101.14 285.53 100.47 284.54 99.5997C283.54 98.7297 282.68 97.6697 281.95 96.4397C280.72 94.3597 280.13 92.2097 280.19 89.9797C280.25 87.7597 280.94 85.6297 282.27 83.5897C283.6 81.5497 285.55 79.7697 288.12 78.2497C290.69 76.7297 293.2 75.8797 295.62 75.6997C298.05 75.5197 300.25 75.9397 302.22 76.9597C304.2 77.9797 305.8 79.5297 307.03 81.6197C307.76 82.8497 308.26 84.1197 308.55 85.4097C308.83 86.7097 308.89 87.9897 308.72 89.2797C308.55 90.5597 308.15 91.7797 307.51 92.9497C306.87 94.1197 306 95.1797 304.87 96.1497H304.89Z" fill="#F4E2FF"/>
<path d="M291.09 113.41L318.02 104.51L319.1 107.77L305.74 112.19L305.85 112.51L323.21 120.19L324.62 124.45L308.73 117.16L297.69 133.35L296.39 129.41L305.81 115.91L300.91 113.8L292.18 116.69L291.1 113.43L291.09 113.41Z" fill="#F4E2FF"/>
<path d="M83.6197 286.94C83.9297 286.01 84.1097 285.1 84.1597 284.21C84.2097 283.32 84.1197 282.46 83.8897 281.63C83.6597 280.8 83.2797 280.02 82.7597 279.29C82.2397 278.55 81.5697 277.88 80.7397 277.27C79.3897 276.26 77.9097 275.7 76.2897 275.57C74.6697 275.44 73.0297 275.81 71.3697 276.68C69.7097 277.55 68.1397 278.97 66.6697 280.93C65.1997 282.9 64.2897 284.81 63.9397 286.65C63.5897 288.5 63.7097 290.19 64.3197 291.72C64.9297 293.25 65.9297 294.55 67.3397 295.6C68.6397 296.57 69.9997 297.15 71.4097 297.33C72.8197 297.51 74.1897 297.3 75.5097 296.69C76.8297 296.08 78.0097 295.08 79.0497 293.69L79.7597 294.5L72.9197 289.4L74.7397 286.96L83.3997 293.42L81.5797 295.86C80.1797 297.73 78.5697 299.06 76.7397 299.85C74.9097 300.64 73.0197 300.89 71.0597 300.61C69.0997 300.33 67.2197 299.51 65.4097 298.16C63.3997 296.66 61.9797 294.87 61.1697 292.78C60.3597 290.69 60.1797 288.47 60.6297 286.09C61.0897 283.71 62.2097 281.32 63.9997 278.93C65.3397 277.13 66.7897 275.69 68.3497 274.62C69.9097 273.55 71.5097 272.83 73.1597 272.48C74.7997 272.13 76.4297 272.14 78.0497 272.5C79.6697 272.86 81.1997 273.59 82.6597 274.68C83.8597 275.57 84.8397 276.59 85.6197 277.72C86.3897 278.85 86.9397 280.05 87.2697 281.32C87.5997 282.59 87.6997 283.87 87.5697 285.19C87.4397 286.51 87.0697 287.79 86.4497 289.05L83.6097 286.93L83.6197 286.94Z" fill="#F4E2FF"/>
<path d="M115.98 293.59L119.12 294.98L111.52 312.15C110.74 313.92 109.62 315.32 108.17 316.34C106.72 317.36 105.07 317.94 103.2 318.06C101.34 318.19 99.3901 317.8 97.3501 316.9C95.3101 316 93.7201 314.82 92.5601 313.35C91.4001 311.88 90.7101 310.27 90.5001 308.52C90.2801 306.76 90.5701 305 91.3501 303.22L98.9501 286.05L102.09 287.44L94.6001 304.36C94.0401 305.63 93.8201 306.87 93.9401 308.11C94.0601 309.35 94.5201 310.47 95.3001 311.48C96.0901 312.5 97.2001 313.33 98.6401 313.97C100.08 314.61 101.45 314.88 102.74 314.77C104.03 314.67 105.16 314.25 106.15 313.51C107.14 312.77 107.91 311.77 108.47 310.5L115.96 293.58L115.98 293.59Z" fill="#F4E2FF"/>
<path d="M123.48 325.66L119.95 324.95L135.71 299.17L139.19 299.86L143.86 329.71L140.33 329L136.69 303.93L136.47 303.89L123.49 325.65L123.48 325.66ZM126.95 315.05L141.18 317.89L140.58 320.88L126.35 318.04L126.95 315.05Z" fill="#F4E2FF"/>
<path d="M156.6 330.59L156.34 302.23L165.92 302.14C168.13 302.12 169.96 302.48 171.39 303.22C172.82 303.96 173.88 304.98 174.58 306.29C175.28 307.59 175.63 309.08 175.65 310.75C175.67 312.42 175.34 313.91 174.67 315.21C174 316.51 172.96 317.53 171.55 318.28C170.14 319.03 168.34 319.41 166.15 319.43L158.39 319.5L158.36 316.4L166 316.33C167.51 316.32 168.73 316.08 169.66 315.63C170.58 315.18 171.25 314.54 171.67 313.72C172.08 312.9 172.28 311.92 172.27 310.79C172.27 309.65 172.04 308.66 171.61 307.82C171.18 306.98 170.49 306.32 169.56 305.87C168.62 305.41 167.39 305.19 165.86 305.21L159.82 305.27L160.06 330.58L156.63 330.61L156.6 330.59ZM169.83 317.72L176.93 330.4L172.94 330.44L165.95 317.76L169.83 317.72Z" fill="#F4E2FF"/>
<path d="M190.86 328.56L187.34 329.32L191.5 299.39L194.96 298.64L211.16 324.15L207.64 324.91L194.29 303.38L194.07 303.43L190.85 328.56H190.86ZM189.81 317.45L203.99 314.37L204.64 317.35L190.46 320.43L189.81 317.45Z" fill="#F4E2FF"/>
<path d="M231.93 284.76L243.82 310.51L240.8 311.9L217.43 298.16L217.18 298.28L226.52 318.5L223.4 319.94L211.51 294.19L214.53 292.8L237.97 306.57L238.22 306.45L228.86 286.18L231.93 284.76Z" fill="#F4E2FF"/>
<path d="M240.31 283.2L238.47 280.77L255.42 267.92L257.26 270.35L250.15 275.74L265.44 295.91L262.7 297.99L247.4 277.82L240.29 283.21L240.31 283.2Z" fill="#F4E2FF"/>
<path d="M282.29 281.181L261.06 262.371L272.41 249.561L274.69 251.581L265.61 261.821L272.78 268.181L281.27 258.601L283.55 260.621L275.06 270.201L282.27 276.591L291.49 266.181L293.77 268.201L282.27 281.181H282.29Z" fill="#F4E2FF"/>
<path d="M302.09 256.77L277.61 242.44L286.26 227.67L288.89 229.21L281.98 241.02L290.25 245.86L296.71 234.82L299.34 236.36L292.88 247.4L301.2 252.27L308.22 240.27L310.85 241.81L302.09 256.78V256.77Z" fill="#F4E2FF"/>
<path d="M319.86 220.77L317.01 229.04L290.2 219.79L293.18 211.15C294.08 208.55 295.38 206.51 297.09 205.03C298.8 203.55 300.82 202.66 303.15 202.36C305.48 202.06 308.04 202.39 310.81 203.35C313.6 204.31 315.84 205.64 317.5 207.33C319.17 209.02 320.21 211 320.64 213.27C321.06 215.54 320.8 218.04 319.86 220.77ZM315.25 224.8L316.91 219.98C317.67 217.76 317.88 215.78 317.53 214.03C317.18 212.28 316.34 210.77 315 209.51C313.67 208.25 311.91 207.24 309.73 206.49C307.56 205.74 305.58 205.45 303.77 205.62C301.96 205.79 300.39 206.43 299.06 207.54C297.73 208.66 296.71 210.26 295.99 212.35L294.2 217.53L315.25 224.79V224.8Z" fill="#F4E2FF"/>
<path d="M154.18 178.08L138.28 162.18C137.44 161.34 136.31 160.92 135.18 160.92C134.05 160.92 132.92 161.34 132.08 162.18C130.4 163.86 130.4 166.7 132.08 168.38L151.08 187.39C151.91 188.22 153.01 188.68 154.18 188.68C155.35 188.68 156.45 188.22 157.28 187.39L195.21 149.46C196.03 148.64 196.48 147.54 196.48 146.36C196.48 145.18 196.03 144.08 195.21 143.26C193.53 141.58 190.69 141.58 189.01 143.26L154.18 178.09V178.08Z" fill="#F4E2FF"/>
<path d="M195.89 228.29H209.24C218.92 228.29 226.79 220.42 226.79 210.74V197.39C226.79 194.9 228.29 190.92 229.93 189.04L240.59 176.65C246.08 170.25 246.08 160.22 240.59 153.81L229.91 141.4C228.28 139.54 226.79 135.56 226.79 133.07V119.72C226.79 110.04 218.92 102.17 209.24 102.17H195.89C193.31 102.17 189.4 100.74 187.54 99.1095L175.15 88.4495C168.75 82.9595 158.71 82.9595 152.3 88.4495L139.9 99.1295C137.9 100.75 133.97 102.18 131.57 102.18H117.98C108.3 102.18 100.43 110.05 100.43 119.73V133.24C100.43 135.78 98.9995 139.65 97.3695 141.51L86.7995 153.96C81.5095 160.22 81.5095 170.42 86.7995 176.69L97.3995 189.17C98.9995 191 100.43 194.86 100.43 197.4V210.83C100.43 220.51 108.3 228.38 117.98 228.38H131.49C134.07 228.38 137.98 229.81 139.84 231.44L152.23 242.1C155.31 244.74 159.39 246.2 163.69 246.2C167.99 246.2 172.07 244.72 175.13 242.04L187.56 231.34C189.56 229.72 193.49 228.29 195.89 228.29ZM172.1 238.45C169.84 240.38 166.8 241.35 163.77 241.35C160.74 241.35 157.71 240.39 155.45 238.46L143.03 227.77C140.22 225.34 135.29 223.51 131.57 223.51H117.98C110.94 223.51 105.21 217.78 105.21 210.74V197.31C105.21 193.7 103.4 188.83 101.01 185.98L90.4195 173.51C86.5295 168.95 86.5295 161.52 90.4195 156.96L101.02 144.48C103.38 141.74 105.21 136.77 105.21 133.16V119.73C105.21 112.69 110.94 106.96 117.98 106.96H131.57C135.21 106.96 140.26 105.11 143.06 102.76L155.43 92.0295C159.96 88.1595 167.58 88.1595 172.09 92.0095L184.51 102.7C187.32 105.13 192.25 106.96 195.97 106.96H209.32C216.36 106.96 222.09 112.69 222.09 119.73V133C222.09 136.72 223.92 141.65 226.34 144.46L237.02 156.87C240.88 161.39 240.88 169.01 237.02 173.52L226.34 185.94C223.91 188.75 222.08 193.68 222.08 197.4V210.75C222.08 217.79 216.35 223.52 209.31 223.52H195.96C192.31 223.52 187.37 225.36 184.47 227.8L172.09 238.45H172.1Z" fill="#F4E2FF"/>
<path d="M48.2304 266.76C51.4282 266.76 54.0204 264.167 54.0204 260.97C54.0204 257.772 51.4282 255.18 48.2304 255.18C45.0327 255.18 42.4404 257.772 42.4404 260.97C42.4404 264.167 45.0327 266.76 48.2304 266.76Z" fill="#F4E2FF"/>
<path d="M313.05 180.73C316.247 180.73 318.84 178.138 318.84 174.94C318.84 171.743 316.247 169.15 313.05 169.15C309.852 169.15 307.26 171.743 307.26 174.94C307.26 178.138 309.852 180.73 313.05 180.73Z" fill="#F4E2FF"/>
</g>
<defs>
<clipPath id="clip0_13_373">
<rect width="324.61" height="330.59" fill="white"/>
</clipPath>
</defs>
</svg>
