<svg width="102" height="17" viewBox="0 0 102 17" fill="none" xmlns="http://www.w3.org/2000/svg">
<path d="M8.56088 13.7L4.41088 16.2C4.22754 16.3167 4.03588 16.3667 3.83588 16.35C3.63588 16.3333 3.46088 16.2667 3.31088 16.15C3.16088 16.0333 3.04421 15.8877 2.96088 15.713C2.87754 15.5383 2.86088 15.3423 2.91088 15.125L4.01088 10.4L0.335876 7.225C0.169209 7.075 0.0652091 6.904 0.0238758 6.712C-0.0174575 6.52 -0.00512426 6.33267 0.0608757 6.15C0.126876 5.96733 0.226876 5.81733 0.360876 5.7C0.494876 5.58267 0.678209 5.50767 0.910876 5.475L5.76088 5.05L7.63588 0.6C7.71921 0.4 7.84854 0.25 8.02388 0.15C8.19921 0.0499999 8.37821 0 8.56088 0C8.74354 0 8.92254 0.0499999 9.09788 0.15C9.27321 0.25 9.40254 0.4 9.48588 0.6L11.3609 5.05L16.2109 5.475C16.4442 5.50833 16.6275 5.58333 16.7609 5.7C16.8942 5.81667 16.9942 5.96667 17.0609 6.15C17.1275 6.33333 17.1402 6.521 17.0989 6.713C17.0575 6.905 16.9532 7.07567 16.7859 7.225L13.1109 10.4L14.2109 15.125C14.2609 15.3417 14.2442 15.5377 14.1609 15.713C14.0775 15.8883 13.9609 16.034 13.8109 16.15C13.6609 16.266 13.4859 16.3327 13.2859 16.35C13.0859 16.3673 12.8942 16.3173 12.7109 16.2L8.56088 13.7Z" fill="#F2D74C"/>
<path d="M29.6834 13.7L25.5334 16.2C25.3501 16.3167 25.1584 16.3667 24.9584 16.35C24.7584 16.3333 24.5834 16.2667 24.4334 16.15C24.2834 16.0333 24.1668 15.8877 24.0834 15.713C24.0001 15.5383 23.9834 15.3423 24.0334 15.125L25.1334 10.4L21.4584 7.225C21.2918 7.075 21.1878 6.904 21.1464 6.712C21.1051 6.52 21.1174 6.33267 21.1834 6.15C21.2494 5.96733 21.3494 5.81733 21.4834 5.7C21.6174 5.58267 21.8008 5.50767 22.0334 5.475L26.8834 5.05L28.7584 0.6C28.8418 0.4 28.9711 0.25 29.1464 0.15C29.3218 0.0499999 29.5008 0 29.6834 0C29.8661 0 30.0451 0.0499999 30.2204 0.15C30.3958 0.25 30.5251 0.4 30.6084 0.6L32.4834 5.05L37.3334 5.475C37.5668 5.50833 37.7501 5.58333 37.8834 5.7C38.0168 5.81667 38.1168 5.96667 38.1834 6.15C38.2501 6.33333 38.2628 6.521 38.2214 6.713C38.1801 6.905 38.0758 7.07567 37.9084 7.225L34.2334 10.4L35.3334 15.125C35.3834 15.3417 35.3668 15.5377 35.2834 15.713C35.2001 15.8883 35.0834 16.034 34.9334 16.15C34.7834 16.266 34.6084 16.3327 34.4084 16.35C34.2084 16.3673 34.0168 16.3173 33.8334 16.2L29.6834 13.7Z" fill="#F2D74C"/>
<path d="M50.806 13.7L46.656 16.2C46.4727 16.3167 46.281 16.3667 46.081 16.35C45.881 16.3333 45.706 16.2667 45.556 16.15C45.406 16.0333 45.2893 15.8877 45.206 15.713C45.1227 15.5383 45.106 15.3423 45.156 15.125L46.256 10.4L42.581 7.225C42.4143 7.075 42.3103 6.904 42.269 6.712C42.2277 6.52 42.24 6.33267 42.306 6.15C42.372 5.96733 42.472 5.81733 42.606 5.7C42.74 5.58267 42.9233 5.50767 43.156 5.475L48.006 5.05L49.881 0.6C49.9643 0.4 50.0937 0.25 50.269 0.15C50.4443 0.0499999 50.6233 0 50.806 0C50.9887 0 51.1677 0.0499999 51.343 0.15C51.5183 0.25 51.6477 0.4 51.731 0.6L53.606 5.05L58.456 5.475C58.6893 5.50833 58.8727 5.58333 59.006 5.7C59.1393 5.81667 59.2393 5.96667 59.306 6.15C59.3727 6.33333 59.3853 6.521 59.344 6.713C59.3027 6.905 59.1983 7.07567 59.031 7.225L55.356 10.4L56.456 15.125C56.506 15.3417 56.4893 15.5377 56.406 15.713C56.3227 15.8883 56.206 16.034 56.056 16.15C55.906 16.266 55.731 16.3327 55.531 16.35C55.331 16.3673 55.1393 16.3173 54.956 16.2L50.806 13.7Z" fill="#F2D74C"/>
<path d="M71.9288 13.7L67.7788 16.2C67.5955 16.3167 67.4038 16.3667 67.2038 16.35C67.0038 16.3333 66.8288 16.2667 66.6788 16.15C66.5288 16.0333 66.4121 15.8877 66.3288 15.713C66.2455 15.5383 66.2288 15.3423 66.2788 15.125L67.3788 10.4L63.7038 7.225C63.5371 7.075 63.4331 6.904 63.3918 6.712C63.3505 6.52 63.3628 6.33267 63.4288 6.15C63.4948 5.96733 63.5948 5.81733 63.7288 5.7C63.8628 5.58267 64.0461 5.50767 64.2788 5.475L69.1288 5.05L71.0038 0.6C71.0871 0.4 71.2165 0.25 71.3918 0.15C71.5671 0.0499999 71.7461 0 71.9288 0C72.1115 0 72.2905 0.0499999 72.4658 0.15C72.6411 0.25 72.7705 0.4 72.8538 0.6L74.7288 5.05L79.5788 5.475C79.8121 5.50833 79.9955 5.58333 80.1288 5.7C80.2621 5.81667 80.3621 5.96667 80.4288 6.15C80.4955 6.33333 80.5081 6.521 80.4668 6.713C80.4255 6.905 80.3211 7.07567 80.1538 7.225L76.4788 10.4L77.5788 15.125C77.6288 15.3417 77.6121 15.5377 77.5288 15.713C77.4455 15.8883 77.3288 16.034 77.1788 16.15C77.0288 16.266 76.8538 16.3327 76.6538 16.35C76.4538 16.3673 76.2621 16.3173 76.0788 16.2L71.9288 13.7Z" fill="#F2D74C"/>
<path d="M93.0514 13.7L88.9014 16.2C88.718 16.3167 88.5264 16.3667 88.3264 16.35C88.1264 16.3333 87.9514 16.2667 87.8014 16.15C87.6514 16.0333 87.5347 15.8877 87.4514 15.713C87.368 15.5383 87.3514 15.3423 87.4014 15.125L88.5014 10.4L84.8264 7.225C84.6597 7.075 84.5557 6.904 84.5144 6.712C84.473 6.52 84.4854 6.33267 84.5514 6.15C84.6174 5.96733 84.7174 5.81733 84.8514 5.7C84.9854 5.58267 85.1687 5.50767 85.4014 5.475L90.2514 5.05L92.1264 0.6C92.2097 0.4 92.339 0.25 92.5144 0.15C92.6897 0.0499999 92.8687 0 93.0514 0C93.234 0 93.413 0.0499999 93.5884 0.15C93.7637 0.25 93.893 0.4 93.9764 0.6L95.8514 5.05L100.701 5.475C100.935 5.50833 101.118 5.58333 101.251 5.7C101.385 5.81667 101.485 5.96667 101.551 6.15C101.618 6.33333 101.631 6.521 101.589 6.713C101.548 6.905 101.444 7.07567 101.276 7.225L97.6014 10.4L98.7014 15.125C98.7514 15.3417 98.7347 15.5377 98.6514 15.713C98.568 15.8883 98.4514 16.034 98.3014 16.15C98.1514 16.266 97.9764 16.3327 97.7764 16.35C97.5764 16.3673 97.3847 16.3173 97.2014 16.2L93.0514 13.7Z" fill="#F2D74C"/>
</svg>
